<svg width="2019" height="2019" viewBox="0 0 2019 2019" fill="none" xmlns="http://www.w3.org/2000/svg">
<path d="M1009 687V218.949C1009 120.671 929.411 41 831.234 41H41L686.333 687H1009Z" fill="url(#paint0_linear_0_3)"/>
<path d="M1977 687V700.475C1977 1405.48 1405.19 1977 699.815 1977H41L686.333 1332C864.503 1332 1025.83 1259.78 1142.62 1143.05C1222.96 1062.75 1282.19 961.498 1311.36 848.126C1335.65 753.841 1419.29 687 1516.73 687H1977Z" fill="url(#paint1_linear_0_3)"/>
<path d="M687 686.333L41 41V1977L687 1331.67V686.333Z" fill="url(#paint2_linear_0_3)"/>
<path d="M1596 687V700.475C1596 1405.48 1024.3 1977 319.074 1977H41L686.202 1332C864.336 1332 1025.63 1259.78 1142.4 1143.05C1222.72 1062.75 1281.94 961.498 1311.1 848.126C1335.39 753.841 1419.01 687 1516.43 687H1596Z" fill="url(#paint3_linear_0_3)"/>
<defs>
<linearGradient id="paint0_linear_0_3" x1="642.239" y1="669.247" x2="439.398" y2="-278.24" gradientUnits="userSpaceOnUse">
<stop offset="0.0246" stop-color="#F13824"/>
<stop offset="0.3654" stop-color="#BA0F0F"/>
<stop offset="1" stop-color="#7D0E13"/>
</linearGradient>
<linearGradient id="paint1_linear_0_3" x1="1009" y1="738.135" x2="1009" y2="1982.04" gradientUnits="userSpaceOnUse">
<stop offset="0.0246" stop-color="#F13824"/>
<stop offset="0.3654" stop-color="#BA0F0F"/>
<stop offset="1" stop-color="#7D0E13"/>
</linearGradient>
<linearGradient id="paint2_linear_0_3" x1="-234.915" y1="1009" x2="671.316" y2="1009" gradientUnits="userSpaceOnUse">
<stop offset="0.0246" stop-color="#F13824"/>
<stop offset="0.2844" stop-color="#BA0F0F"/>
<stop offset="1" stop-color="#440C28"/>
</linearGradient>
<linearGradient id="paint3_linear_0_3" x1="40.9988" y1="1332" x2="1596" y2="1332" gradientUnits="userSpaceOnUse">
<stop offset="0.0322" stop-color="#BA0F0F"/>
<stop offset="0.5081" stop-color="#7D0E13"/>
<stop offset="1" stop-color="#440C28"/>
</linearGradient>
</defs>
</svg>
